# xmcd
#
# Track frame offsets:
#	150
#	12975
#	22800
#	38175
#	56850
#	67050
#	77625
#	88650
#	105825
#	117225
#	127500
#	145050
#	155925
#	170925
#	182025
#	196050
#	210225
#	225750
#	241800
#
# Disc length: 3374 seconds
#
# Revision: 2
# Processed by: cddbd v1.5.1PL2 Copyright (c) Steve Scherf et al.
# Submitted via: audiograbber 1.83.01
#
DISCID=ed0d2c13
DTITLE=Various Artist - DKG-802
DYEAR=1900
DGENRE=Karaoke
TTITLE0=Gospel - Rock Of Ages
TTITLE1=Gospel - Onward Christian Soldiers
TTITLE2=Gospel - Jesus Loves Me
TTITLE3=Gospel - Wings Of A Dove
TTITLE4=Gospel - Abide With Me
TTITLE5=Gospel - Go Tell It On The Mountain
TTITLE6=Gospel - How Great Thou Art
TTITLE7=Gospel - Nearer My God To Thee
TTITLE8=Gospel - In The Garden
TTITLE9=Gospel - Jesus Is Coming Soon
TTITLE10=Gospel - I Need Thee Every Hour
TTITLE11=Gospel - Little Brown Church The Vale
TTITLE12=Gospel - When The Roll Is Called Up Yonder
TTITLE13=Gospel - Sweet Hour Of Prayer
TTITLE14=Gospel - Flow Gently Sweet Afton
TTITLE15=Gospel - Take My Hand, Precious Lord
TTITLE16=Gospel - Precious Memories
TTITLE17=Gospel - Whispering Hope
TTITLE18=Gospel - I'll Fly Away
EXTD=
EXTT0=
EXTT1=
EXTT2=
EXTT3=
EXTT4=
EXTT5=
EXTT6=
EXTT7=
EXTT8=
EXTT9=
EXTT10=
EXTT11=
EXTT12=
EXTT13=
EXTT14=
EXTT15=
EXTT16=
EXTT17=
EXTT18=
PLAYORDER=
